<svg xmlns="http://www.w3.org/2000/svg" width="800" height="800" viewBox="0 0 520.532 520.532" xml:space="preserve"><path d="M407.666 147.391H112.875C50.637 147.391 0 198.025 0 260.263c0 62.24 50.637 112.878 112.875 112.878h294.791c62.229 0 112.866-50.638 112.866-112.878 0-62.238-50.632-112.872-112.866-112.872zm-264.939 44.972c-78.586 0-83.98 41.81-84.021 42.238-.618 5.739-5.467 10.001-11.121 10.001-.393 0-.798-.018-1.197-.068-6.156-.653-10.604-6.18-9.945-12.32.272-2.545 7.802-62.241 106.284-62.241 6.18 0 11.198 5.012 11.198 11.198s-5.012 11.192-11.198 11.192zm264.939 152.79h-95.151V175.379h95.151c46.808 0 84.885 38.083 84.885 84.884-.001 46.807-38.078 84.89-84.885 84.89z"/></svg>