<?xml version="1.0" standalone="no"?>
<!DOCTYPE svg PUBLIC "-//W3C//DTD SVG 20010904//EN"
 "http://www.w3.org/TR/2001/REC-SVG-20010904/DTD/svg10.dtd">
<svg version="1.0" xmlns="http://www.w3.org/2000/svg"
 width="680.000000pt" height="680.000000pt" viewBox="0 0 680.000000 680.000000"
 preserveAspectRatio="xMidYMid meet">
<metadata>
Created by potrace 1.14, written by Peter Selinger 2001-2017
</metadata>
<g transform="translate(0.000000,680.000000) scale(0.100000,-0.100000)"
fill="#000000" stroke="none">
<path d="M3308 6377 c-62 -38 -98 -101 -98 -174 0 -69 51 -149 111 -173 l29
-12 0 -359 0 -359 -100 0 -100 0 0 256 c0 157 -4 263 -10 275 -7 12 -21 19
-40 19 -19 0 -33 -7 -40 -19 -6 -12 -10 -118 -10 -275 l0 -256 -100 0 -100 0
0 175 c0 162 -2 177 -20 195 -11 11 -24 20 -30 20 -5 0 -19 -9 -30 -20 -18
-18 -20 -33 -20 -195 l0 -175 -45 0 c-113 0 -205 -94 -205 -210 l0 -50 -173 0
c-121 0 -177 -4 -185 -12 -19 -19 -15 -66 7 -78 11 -6 90 -10 185 -10 l166 0
0 -105 0 -105 -254 0 c-218 0 -257 -2 -270 -16 -21 -21 -20 -40 4 -64 19 -19
33 -20 270 -20 l250 0 0 -105 0 -105 -349 0 -349 0 -6 24 c-9 37 -56 87 -101
107 -157 72 -320 -97 -246 -256 57 -124 203 -155 298 -63 17 17 37 44 44 59
l11 29 349 0 349 0 0 -105 0 -105 -260 0 -260 0 -11 -24 c-8 -17 -8 -29 0 -45
11 -20 19 -21 269 -23 l257 -3 0 -105 0 -105 -174 -5 c-163 -5 -174 -6 -188
-26 -12 -18 -11 -24 4 -43 17 -20 28 -21 188 -23 l170 -3 6 -63 c11 -110 86
-185 198 -199 l51 -6 0 -172 c0 -154 2 -174 18 -188 24 -22 45 -21 65 1 14 16
17 45 17 190 l0 172 100 0 100 0 0 -258 c0 -238 1 -260 18 -275 25 -23 48 -21
66 5 14 19 16 63 16 275 l0 253 100 0 100 0 0 -354 0 -353 -48 -30 c-121 -75
-122 -244 -3 -328 35 -25 52 -30 101 -30 49 0 66 5 101 30 119 84 118 253 -3
328 l-48 30 0 353 0 354 100 0 100 0 0 -258 c0 -238 1 -260 18 -275 24 -22 45
-21 65 1 15 16 17 50 17 275 l0 257 100 0 100 0 0 -173 c0 -156 2 -176 18
-190 24 -22 45 -21 65 1 14 16 17 44 17 189 l0 170 51 6 c112 14 187 89 198
199 l6 63 174 5 c163 5 174 6 188 26 12 18 11 24 -4 43 -17 20 -28 21 -188 23
l-170 3 0 105 0 105 258 3 258 2 10 24 c8 17 8 29 0 45 -11 21 -17 21 -271 21
l-260 0 0 105 0 105 349 0 349 0 11 -29 c16 -36 68 -87 104 -100 156 -59 309
111 238 264 -32 69 -102 115 -173 115 -70 -1 -159 -65 -174 -126 l-6 -24 -349
0 -349 0 0 105 0 105 248 0 c208 0 251 2 270 16 26 18 28 46 6 68 -13 14 -52
16 -270 16 l-254 0 0 105 0 105 168 0 c172 0 192 4 205 41 3 9 -1 26 -9 38
-14 20 -23 21 -190 21 l-174 0 0 50 c0 59 -24 111 -72 157 -41 39 -76 53 -134
53 l-44 0 0 175 c0 162 -2 177 -20 195 -11 11 -24 20 -30 20 -5 0 -19 -9 -30
-20 -18 -18 -20 -33 -20 -195 l0 -175 -100 0 -100 0 0 260 c0 247 -1 261 -20
280 -11 11 -24 20 -30 20 -5 0 -19 -9 -30 -20 -19 -19 -20 -33 -20 -280 l0
-260 -100 0 -100 0 1 358 0 357 47 30 c163 104 93 355 -98 355 -39 0 -65 -6
-92 -23z m127 -81 c41 -17 55 -42 55 -94 0 -33 -6 -45 -31 -66 -17 -15 -43
-26 -59 -26 -16 0 -42 11 -59 26 -25 21 -31 33 -31 66 0 51 14 76 53 93 40 18
32 17 72 1z m705 -1104 c73 -36 70 -1 70 -815 0 -779 1 -767 -50 -812 -22 -20
-38 -20 -749 -22 -568 -2 -731 0 -751 10 -13 7 -35 28 -47 46 l-23 34 0 736
c0 681 1 739 18 771 36 73 4 70 792 70 651 0 708 -1 740 -18z m-2477 -734 c35
-18 46 -40 47 -86 0 -58 -33 -92 -90 -92 -57 0 -90 34 -90 92 0 24 6 50 13 59
29 37 80 49 120 27z m3560 0 c35 -18 46 -40 47 -86 0 -58 -33 -92 -90 -92 -57
0 -90 34 -90 92 0 24 6 50 13 59 29 37 80 49 120 27z m-1755 -1854 c15 -18 22
-38 22 -69 0 -36 -5 -47 -31 -69 -17 -15 -43 -26 -59 -26 -16 0 -42 11 -59 26
-26 21 -31 33 -31 68 0 69 43 111 105 101 17 -3 40 -16 53 -31z"/>
<path d="M3167 5063 c-4 -3 -7 -104 -7 -224 l0 -219 -217 -2 -218 -3 -3 -242
-2 -243 220 0 220 0 2 -227 3 -228 235 0 235 0 3 228 2 227 220 0 220 0 -2
243 -3 242 -217 3 -218 2 0 225 0 225 -233 0 c-129 0 -237 -3 -240 -7z"/>
<path d="M4273 2253 c-12 -2 -34 -18 -48 -34 l-25 -31 0 -260 0 -261 -46 43
c-217 200 -581 132 -726 -137 -63 -116 -80 -304 -39 -433 64 -201 229 -331
451 -355 83 -8 201 15 284 57 123 62 228 199 261 340 19 81 22 981 4 1022 -11
23 -65 58 -86 55 -4 -1 -18 -4 -30 -6z m-247 -636 c28 -14 72 -49 97 -77 60
-67 82 -131 82 -240 -1 -71 -5 -95 -29 -146 -104 -229 -416 -262 -556 -60 -47
69 -63 121 -63 211 0 157 81 279 218 328 73 26 183 19 251 -16z"/>
<path d="M5988 2224 c-60 -32 -78 -129 -33 -183 53 -62 137 -62 190 0 45 55
27 152 -35 184 -36 19 -87 19 -122 -1z"/>
<path d="M5030 1825 c-186 -42 -327 -171 -383 -350 -31 -101 -29 -244 5 -341
73 -208 241 -334 448 -334 123 0 228 39 311 117 l49 46 0 -46 c0 -83 73 -137
139 -103 17 9 35 25 41 35 6 12 10 123 10 289 0 295 -4 325 -63 437 -101 191
-341 299 -557 250z m230 -181 c182 -76 261 -305 170 -491 -121 -245 -466 -242
-587 6 -25 50 -28 67 -28 156 0 87 3 107 26 156 46 97 134 169 232 189 52 11
140 3 187 -16z"/>
<path d="M858 1816 c-50 -14 -132 -59 -143 -77 -4 -5 -14 5 -23 23 -32 63
-119 75 -162 21 -19 -25 -20 -38 -20 -483 l0 -458 31 -26 c40 -34 88 -34 126
-2 l28 24 5 324 c5 308 6 325 27 364 55 104 168 148 276 110 48 -18 73 -40
101 -91 20 -38 21 -57 26 -373 l5 -334 28 -24 c30 -26 83 -32 118 -14 46 25
49 51 49 366 0 336 3 358 65 419 78 78 205 86 286 18 62 -52 63 -64 69 -431
l5 -334 28 -24 c30 -26 83 -32 118 -14 46 25 49 50 49 368 0 318 -7 385 -46
469 -32 66 -118 145 -181 167 -147 51 -323 17 -425 -82 l-37 -35 -46 42 c-68
62 -140 92 -233 97 -47 2 -96 -2 -124 -10z"/>
<path d="M2610 1819 c-185 -31 -346 -188 -391 -379 -19 -83 -14 -223 10 -301
98 -311 460 -446 774 -287 109 54 135 107 81 162 -36 35 -80 34 -147 -3 -168
-94 -350 -73 -466 55 -42 46 -81 122 -81 158 0 8 103 10 340 8 219 -2 355 1
380 8 61 16 74 45 67 138 -16 206 -140 376 -309 427 -66 19 -189 26 -258 14z
m238 -193 c75 -38 127 -111 147 -203 l7 -33 -306 0 c-168 0 -306 4 -306 9 0
21 33 100 57 134 80 116 270 160 401 93z"/>
<path d="M5998 1814 c-46 -25 -49 -57 -46 -525 l3 -431 28 -24 c40 -34 105
-33 138 2 l24 26 3 431 c2 294 0 444 -8 469 -17 60 -83 84 -142 52z"/>
</g>
</svg>
