<?xml version="1.0" standalone="no"?>
<!DOCTYPE svg PUBLIC "-//W3C//DTD SVG 20010904//EN"
 "http://www.w3.org/TR/2001/REC-SVG-20010904/DTD/svg10.dtd">
<svg version="1.0" xmlns="http://www.w3.org/2000/svg"
 width="512.000000pt" height="512.000000pt" viewBox="0 0 512.000000 512.000000"
 preserveAspectRatio="xMidYMid meet">

<g transform="translate(0.000000,512.000000) scale(0.100000,-0.100000)"
fill="#000000" stroke="none">
<path d="M0 2560 l0 -2560 2560 0 2560 0 0 2560 0 2560 -2560 0 -2560 0 0
-2560z m2646 2416 c145 -39 265 -150 314 -290 56 -165 18 -337 -105 -465 -303
-318 -833 -56 -773 382 17 123 109 262 216 324 100 59 239 78 348 49z m-36
-1076 c76 -14 151 -52 205 -101 100 -93 145 -191 145 -321 l0 -78 418 0 c495
0 493 0 582 -88 64 -64 90 -124 90 -207 0 -112 -70 -220 -172 -266 -53 -24
-54 -24 -485 -27 l-433 -3 0 -264 0 -265 453 0 c492 0 519 -2 619 -57 61 -33
138 -115 171 -179 13 -27 57 -136 96 -241 80 -212 84 -243 39 -276 -26 -20
-30 -20 -60 -5 -31 15 -38 29 -117 243 -96 256 -120 293 -219 342 l-57 28
-512 3 -512 3 -21 26 c-19 25 -20 39 -20 374 0 239 4 356 11 373 7 14 25 30
42 36 19 6 192 10 482 10 l452 0 34 23 c91 61 89 181 -5 251 -27 20 -41 21
-501 24 l-474 3 -21 26 c-17 22 -20 40 -20 133 0 128 -15 181 -71 244 -136
155 -380 125 -477 -58 l-27 -51 -5 -443 -5 -444 -24 -19 c-30 -25 -52 -24 -85
2 l-27 21 3 457 3 456 32 67 c57 120 160 208 282 240 78 20 119 22 191 8z
m-883 -506 c99 -48 163 -149 163 -259 0 -116 -67 -214 -188 -278 -549 -289
-767 -957 -492 -1512 191 -385 580 -627 1010 -628 188 0 352 38 516 121 152
77 262 168 387 319 77 93 138 130 229 140 90 9 160 -17 228 -85 70 -71 95
-134 88 -226 -6 -75 -33 -129 -108 -221 -133 -162 -316 -317 -488 -413 -366
-205 -790 -271 -1202 -186 -301 62 -609 226 -831 443 -116 113 -124 129 -88
175 39 49 69 38 178 -66 265 -253 585 -401 946 -438 358 -37 740 62 1045 271
161 110 372 328 400 414 35 107 -69 216 -177 185 -48 -13 -54 -18 -137 -117
-190 -227 -442 -376 -746 -440 -115 -24 -351 -24 -473 0 -463 92 -840 429
-981 876 -76 239 -76 523 0 762 99 315 329 594 611 742 39 20 83 51 97 67 80
96 12 240 -114 240 -83 0 -298 -133 -454 -281 -202 -192 -342 -413 -425 -673
-133 -416 -77 -912 144 -1275 19 -32 35 -70 35 -85 0 -62 -80 -88 -125 -40
-38 41 -151 279 -190 402 -57 180 -77 318 -77 522 0 205 20 343 78 522 139
437 457 809 861 1012 104 52 187 55 280 10z m484 -923 c23 -19 24 -24 29 -223
5 -184 7 -207 27 -244 36 -67 70 -101 135 -133 l61 -31 516 0 c292 0 546 -5
586 -10 127 -19 235 -85 302 -185 22 -34 87 -194 178 -434 78 -210 150 -391
158 -404 21 -32 76 -57 124 -57 76 0 143 68 143 145 0 25 -26 110 -71 230 -61
164 -69 194 -60 218 25 65 108 55 136 -16 99 -245 137 -365 138 -427 2 -159
-126 -291 -282 -291 -32 0 -76 5 -98 11 -57 17 -128 73 -157 122 -13 24 -86
207 -161 408 -75 201 -147 384 -161 407 -28 48 -69 83 -134 112 -43 20 -64 21
-576 21 -334 0 -552 4 -588 11 -137 25 -259 119 -319 246 l-32 68 -3 216 -3
216 27 22 c33 26 55 27 85 2z"/>
<path d="M2445 4837 c-90 -30 -153 -83 -196 -167 -34 -65 -34 -205 -1 -268 35
-66 88 -119 150 -149 74 -36 182 -38 253 -6 114 51 189 164 189 284 0 36 -7
87 -16 113 -22 65 -100 148 -166 176 -64 27 -158 35 -213 17z"/>
</g>
</svg>
