<svg version="1.1" xmlns="http://www.w3.org/2000/svg" xmlns:xlink="http://www.w3.org/1999/xlink" width="170" height="150" viewBox="875,401.5,170,150"><g id="document" fill="#00000000" fill-rule="nonzero" stroke="#000000" stroke-width="0" stroke-linecap="butt" stroke-linejoin="miter" stroke-miterlimit="10" stroke-dasharray="" stroke-dashoffset="0" font-family="none" font-weight="none" font-size="none" text-anchor="none" style="mix-blend-mode: normal"><rect x="3602.94118" y="1873.66667" transform="scale(0.24286,0.21429)" width="700" height="700" id="Shape 1 1" vector-effect="non-scaling-stroke"/></g><g fill="none" fill-rule="nonzero" stroke="none" stroke-width="1" stroke-linecap="butt" stroke-linejoin="miter" stroke-miterlimit="10" stroke-dasharray="" stroke-dashoffset="0" font-family="none" font-weight="none" font-size="none" text-anchor="none" style="mix-blend-mode: normal"><g id="stage"><g id="layer1 1"><g id="Group 1"><g id="Group 1" fill="#FFFFFF"><g id="Group 1"><path d="M1004.49881,447.35702c-2.1948,0 -4.02779,1.57503 -4.52299,3.68243h-17.4843v-5.48056h12.29589c0.39029,0 0.75093,-0.21457 0.94607,-0.56288c0.19514,-0.34831 0.19514,-0.77744 0,-1.12575c-0.19514,-0.34831 -0.55579,-0.56288 -0.94607,-0.56288h-12.29589v-5.48056h8.2029c0.60346,0 1.09267,-0.50414 1.09267,-1.12601c0,-0.62188 -0.48921,-1.12601 -1.09267,-1.12601h-8.2029v-1.17192c0,-2.98595 -2.35804,-5.41697 -5.25659,-5.41697h-1.13622v-8.45318c0,-0.4022 -0.20822,-0.77384 -0.54622,-0.97494c-0.338,-0.2011 -0.75443,-0.2011 -1.09242,0c-0.338,0.2011 -0.54622,0.57274 -0.54622,0.97494v8.45318h-5.3188v-12.66899c0,-0.62188 -0.48921,-1.12601 -1.09267,-1.12601c-0.60346,0 -1.09267,0.50414 -1.09267,1.12601v12.67002h-5.3178v-18.01826c2.0445,-0.50979 3.5739,-2.39923 3.5739,-4.66099c0,-2.65052 -2.09428,-4.80768 -4.66633,-4.80768c-2.57305,0 -4.66633,2.15714 -4.66633,4.8087c0,2.26177 1.5284,4.1512 3.5734,4.66151v18.01775h-5.3183v-12.67104c-0.01783,-0.60851 -0.50166,-1.09228 -1.09242,-1.09228c-0.59076,0 -1.0746,0.48377 -1.09242,1.09228v12.67002h-5.3183v-8.45318c-0.01783,-0.60851 -0.50166,-1.09228 -1.09242,-1.09228c-0.59076,0 -1.0746,0.48377 -1.09242,1.09228v8.45318h-1.13771c-2.89754,0 -5.25659,2.42999 -5.25659,5.41697v1.17192h-8.2029c-0.59049,0.01837 -1.05994,0.51697 -1.05994,1.12575c0,0.60879 0.46945,1.10739 1.05994,1.12575h8.2029v5.48005h-12.2939c-0.59049,0.01837 -1.05994,0.51697 -1.05994,1.12575c0,0.60879 0.46945,1.10739 1.05994,1.12575h12.2949v5.48158h-17.4843c-0.4952,-2.10791 -2.32868,-3.68294 -4.52399,-3.68294c-2.57156,0 -4.66483,2.15714 -4.66483,4.8087c0,2.65052 2.09327,4.8087 4.66633,4.8087c2.1948,0 4.02829,-1.57503 4.5235,-3.68243h17.4843v5.47954h-12.29589c-0.39029,0 -0.75093,0.21457 -0.94607,0.56288c-0.19514,0.34831 -0.19514,0.77744 0,1.12575c0.19514,0.34831 0.55579,0.56288 0.94607,0.56288h12.2949v5.48108h-8.2029c-0.39029,0 -0.75093,0.21457 -0.94607,0.56288c-0.19514,0.34831 -0.19514,0.77744 0,1.12575c0.19514,0.34831 0.55579,0.56288 0.94607,0.56288h8.2029v1.1714c0,2.98595 2.35804,5.41697 5.25659,5.41697h1.13722v8.45318c0,0.4022 0.20822,0.77384 0.54622,0.97494c0.338,0.2011 0.75443,0.2011 1.09242,0c0.338,-0.2011 0.54622,-0.57274 0.54622,-0.97494v-8.45318h5.3178v12.67104c0,0.4022 0.20822,0.77384 0.54622,0.97494c0.338,0.2011 0.75443,0.2011 1.09242,0c0.338,-0.2011 0.54622,-0.57274 0.54622,-0.97494v-12.67206h5.31929v18.01877c-2.0455,0.51031 -3.5739,2.39973 -3.5739,4.66151c0,2.65052 2.09327,4.80768 4.66633,4.80768c2.57205,0 4.66633,-2.15714 4.66633,-4.8087c0,-2.26177 -1.5284,-4.1512 -3.5734,-4.66151v-18.01775h5.31731v12.67104c0,0.62263 0.48823,1.12575 1.09242,1.12575c0.2899,0.00041 0.56804,-0.11804 0.77307,-0.32925c0.20503,-0.21119 0.32012,-0.49778 0.31985,-0.79652v-12.67104h5.3183v8.45318c0,0.62263 0.48873,1.12575 1.09293,1.12575c0.28981,0.00027 0.56782,-0.11824 0.77275,-0.32942c0.20493,-0.21118 0.31993,-0.49768 0.31967,-0.79633v-8.45318h1.13622c2.89754,0 5.25659,-2.42999 5.25659,-5.41697v-1.17088h8.2029c0.28981,0.00027 0.56782,-0.11824 0.77275,-0.32942c0.20493,-0.21118 0.31993,-0.49768 0.31967,-0.79633c0.0004,-0.29874 -0.11455,-0.58537 -0.3195,-0.79666c-0.20494,-0.21129 -0.48304,-0.32988 -0.77294,-0.32961h-8.2029v-5.48108h12.29589c0.28981,0.00027 0.56782,-0.11824 0.77275,-0.32942c0.20493,-0.21118 0.31993,-0.49768 0.31967,-0.79633c0.00026,-0.29865 -0.11474,-0.58515 -0.31967,-0.79633c-0.20493,-0.21118 -0.48295,-0.32969 -0.77275,-0.32942h-12.29589v-5.48005h17.48529c0.4952,2.10688 2.32868,3.68294 4.5235,3.68294c2.57205,0 4.66533,-2.15817 4.66533,-4.8087c0,-2.65156 -2.09327,-4.8087 -4.66633,-4.8087zM957.51802,406.30819c0.00192,-1.41139 1.11187,-2.55498 2.48148,-2.55667c1.3696,0.00169 2.47955,1.14529 2.48148,2.55667c-0.00192,1.41122 -1.11203,2.55451 -2.48148,2.55565c-1.36933,-0.00141 -2.47928,-1.14453 -2.48148,-2.55565zM915.49966,454.72291c-1.3696,-0.00198 -2.47934,-1.14579 -2.48098,-2.55719c0.00164,-1.41139 1.11138,-2.5552 2.48098,-2.55719c1.36944,0.00198 2.47888,1.14595 2.47999,2.55719c-0.00137,1.4111 -1.11065,2.55492 -2.47999,2.55719zM962.48096,498.02324c-0.00192,1.41139 -1.11187,2.55498 -2.48148,2.55667c-1.3696,-0.00169 -2.47955,-1.14529 -2.48148,-2.55667c0.00164,-1.41159 1.11167,-2.55549 2.48148,-2.55719c1.36969,0.00197 2.47955,1.14571 2.48148,2.55719zM980.30618,469.92703c-0.00192,1.74713 -1.37583,3.16296 -3.07124,3.16494h-34.47189c-1.6954,-0.00198 -3.06931,-1.41781 -3.07124,-3.16494v-35.52364c0.00192,-1.74693 1.37553,-3.16268 3.07074,-3.16494h34.47239c1.6952,0.00198 3.06904,1.4175 3.07124,3.16443zM1004.49881,454.72291c-1.3696,-0.00198 -2.47934,-1.14579 -2.48098,-2.55719c0.00164,-1.41159 1.11167,-2.55549 2.48148,-2.55719c1.3696,0.00198 2.47934,1.14579 2.48098,2.55719c-0.00164,1.41139 -1.11138,2.5552 -2.48098,2.55719z" id="CompoundPath 1"/></g></g><g id="Group 1" fill="#2490eb"><g id="Group 1"><path d="M960.03582,469.61982c2.83533,-11.61094 2.83533,-23.22187 0,-34.83281h-5.88069v11.35603h-11.01981v12.12073h11.01981v11.35603z" id="Path 1"/><path d="M960.03582,469.61982v-34.83281h5.88168v11.35501h11.01933v12.12227h-11.01882v11.35553z" id="Path 1"/></g></g></g><path d="M914.56957,515.88746v0c2.70278,0 4.89028,0.88472 6.56251,2.65417v0v0c1.65278,1.76945 2.47917,4.23889 2.47917,7.40834v0v13.35835v0c0,0.68056 -0.21389,1.24445 -0.64167,1.69167v0v0c-0.42778,0.46667 -1.00139,0.7 -1.72084,0.7v0v0c-0.68056,0 -1.25417,-0.23333 -1.72084,-0.7v0v0c-0.44722,-0.44722 -0.67083,-1.01111 -0.67083,-1.69167v0v-13.35835v0c0,-1.88611 -0.47639,-3.325 -1.42917,-4.31667v0v0c-0.93333,-0.97222 -2.19722,-1.45834 -3.79167,-1.45834v0v0c-1.61389,0 -2.94584,0.56389 -3.99584,1.69167v0v0c-1.03056,1.10833 -1.54584,2.5375 -1.54584,4.2875v0v13.15418v0c0,0.68056 -0.22361,1.24445 -0.67083,1.69167v0v0c-0.42778,0.46667 -1.00139,0.7 -1.72084,0.7v0v0c-0.68056,0 -1.24445,-0.23333 -1.69167,-0.7v0v0c-0.46667,-0.44722 -0.7,-1.01111 -0.7,-1.69167v0v-13.35835v0c0,-1.88611 -0.46667,-3.325 -1.4,-4.31667v0v0c-0.95278,-0.97222 -2.22639,-1.45834 -3.82084,-1.45834v0v0c-1.65278,0 -2.99445,0.56389 -4.025,1.69167v0v0c-1.05,1.10833 -1.575,2.5375 -1.575,4.2875v0v13.15418v0c0,0.68056 -0.21389,1.24445 -0.64167,1.69167v0v0c-0.44722,0.46667 -1.02083,0.7 -1.72084,0.7v0v0c-0.7,0 -1.27361,-0.23333 -1.72084,-0.7v0v0c-0.44722,-0.44722 -0.67083,-1.01111 -0.67083,-1.69167v0v-20.76669v0c0,-0.71945 0.22361,-1.29306 0.67083,-1.72084v0v0c0.44722,-0.44722 1.02083,-0.67083 1.72084,-0.67083v0v0c0.68056,0 1.23472,0.21389 1.6625,0.64167v0v0c0.44722,0.42778 0.68056,0.98195 0.7,1.6625v0v0c0.81667,-0.81667 1.77917,-1.44861 2.8875,-1.89584v0v0c1.12778,-0.44722 2.34306,-0.67083 3.64584,-0.67083v0v0c1.59445,0 3.02361,0.32083 4.2875,0.9625v0v0c1.24445,0.62222 2.275,1.52639 3.09167,2.7125v0v0c0.93333,-1.14722 2.1,-2.05139 3.5,-2.7125v0v0c1.4,-0.64167 2.95556,-0.9625 4.66667,-0.9625zM954.41128,528.48747v0c0,0.58333 -0.19444,1.06945 -0.58333,1.45833v0v0c-0.40833,0.38889 -0.92361,0.58333 -1.54584,0.58333v0h-17.73335v0c0.33056,2.17778 1.3125,3.9375 2.94584,5.27917v0v0c1.63334,1.34167 3.63612,2.0125 6.00834,2.0125v0v0c0.93333,0 1.90556,-0.175 2.91667,-0.525v0v0c1.01111,-0.33056 1.84722,-0.74861 2.50834,-1.25417v0v0c0.42778,-0.35 0.93333,-0.525 1.51667,-0.525v0v0c0.60278,0 1.06945,0.15556 1.4,0.46667v0v0c0.56389,0.46667 0.84583,1.00139 0.84583,1.60417v0v0c0,0.56389 -0.24306,1.03056 -0.72917,1.4v0v0c-1.06945,0.83611 -2.39167,1.51667 -3.96667,2.04167v0v0c-1.55556,0.525 -3.05278,0.7875 -4.49167,0.7875v0v0c-2.54723,0 -4.83195,-0.54445 -6.85417,-1.63334v0v0c-2.02222,-1.10833 -3.60695,-2.64445 -4.75417,-4.60834v0v0c-1.12778,-1.96389 -1.69167,-4.19028 -1.69167,-6.67917v0v0c0,-2.48889 0.53472,-4.71528 1.60417,-6.67917v0v0c1.06945,-1.98334 2.56667,-3.52917 4.49167,-4.63751v0v0c1.90556,-1.10833 4.07362,-1.6625 6.50417,-1.6625v0v0c2.39167,0 4.46251,0.53472 6.21251,1.60417v0v0c1.73056,1.05 3.0625,2.52778 3.99584,4.43334v0v0c0.93333,1.88611 1.4,4.06389 1.4,6.53334v0M942.80293,519.94163v0c-2.275,0 -4.12223,0.62222 -5.54167,1.86667v0v0c-1.4,1.24445 -2.29445,2.90695 -2.68334,4.98751v0h15.54585v0c-0.27222,-2.08056 -1.05,-3.74306 -2.33334,-4.98751v0v0c-1.26389,-1.24445 -2.92639,-1.86667 -4.98751,-1.86667zM982.52798,505.18328v0c0.7,0 1.27361,0.22361 1.72084,0.67083v0v0c0.42778,0.42778 0.64167,1.00139 0.64167,1.72084v0v21.29169v0c0,2.41111 -0.56389,4.60834 -1.69167,6.59167v0v0c-1.14722,1.98334 -2.69306,3.53889 -4.63751,4.66667v0v0c-1.94445,1.12778 -4.1125,1.69167 -6.50417,1.69167v0v0c-2.39167,0 -4.57917,-0.56389 -6.56251,-1.69167v0v0c-1.96389,-1.12778 -3.50973,-2.68334 -4.63751,-4.66667v0v0c-1.10833,-1.98334 -1.6625,-4.18056 -1.6625,-6.59167v0v0c0,-2.43056 0.51528,-4.63751 1.54584,-6.62084v0v0c1.05,-1.96389 2.47917,-3.50973 4.2875,-4.63751v0v0c1.82778,-1.12778 3.85973,-1.69167 6.09584,-1.69167v0v0c1.80834,0 3.49028,0.37917 5.04584,1.1375v0v0c1.55556,0.73889 2.87778,1.77917 3.96667,3.12084v0v-12.60001v0c0,-0.71945 0.22361,-1.29306 0.67083,-1.72084v0v0c0.44722,-0.44722 1.02083,-0.67083 1.72084,-0.67083v0M972.05713,537.61665v0c1.55556,0 2.96528,-0.37917 4.22917,-1.1375v0v0c1.26389,-0.75833 2.25556,-1.80834 2.975,-3.15v0v0c0.7,-1.34167 1.05,-2.82917 1.05,-4.46251v0v0c0,-1.65278 -0.35,-3.14028 -1.05,-4.46251v0v0c-0.71945,-1.32222 -1.71111,-2.3625 -2.975,-3.12084v0v0c-1.26389,-0.77778 -2.67361,-1.16667 -4.22917,-1.16667v0v0c-1.55556,0 -2.96528,0.38889 -4.22917,1.16667v0v0c-1.24445,0.75833 -2.23611,1.79861 -2.975,3.12084v0v0c-0.73889,1.32222 -1.10833,2.80973 -1.10833,4.46251v0v0c0,1.63334 0.36944,3.12084 1.10833,4.46251v0v0c0.73889,1.34167 1.73056,2.39167 2.975,3.15v0v0c1.26389,0.75833 2.67361,1.1375 4.22917,1.1375z" id="CompoundPath 1" fill="#FFFFFF"/><path d="M1003.49047,515.61038v0c2.39167,0 4.55973,0.57361 6.50417,1.72084v0v0c1.94445,1.12778 3.48056,2.68334 4.60834,4.66667v0v0c1.14722,1.96389 1.72084,4.16112 1.72084,6.59167v0v10.41251v0c0,0.68056 -0.22361,1.24445 -0.67083,1.69167v0v0c-0.46667,0.46667 -1.04028,0.7 -1.72084,0.7v0v0c-0.68056,0 -1.24445,-0.23333 -1.69167,-0.7v0v0c-0.44722,-0.44722 -0.67083,-1.01111 -0.67083,-1.69167v0v-1.72084v0c-1.08889,1.34167 -2.41111,2.38195 -3.96667,3.12084v0v0c-1.55556,0.73889 -3.2375,1.10833 -5.04584,1.10833v0v0c-2.23611,0 -4.26806,-0.55417 -6.09584,-1.6625v0v0c-1.82778,-1.12778 -3.25695,-2.67361 -4.2875,-4.63751v0v0c-1.05,-1.98334 -1.575,-4.19028 -1.575,-6.62084v0v0c0,-2.43056 0.56389,-4.62778 1.69167,-6.59167v0v0c1.10833,-1.98334 2.65417,-3.53889 4.63751,-4.66667v0v0c1.98334,-1.14722 4.17084,-1.72084 6.56251,-1.72084v0M1003.49047,537.3104v0c1.55556,0 2.96528,-0.37917 4.22917,-1.1375v0v0c1.24445,-0.75833 2.22639,-1.79861 2.94584,-3.12084v0v0c0.71945,-1.32222 1.07917,-2.80973 1.07917,-4.46251v0v0c0,-1.65278 -0.35972,-3.14028 -1.07917,-4.46251v0v0c-0.71945,-1.34167 -1.70139,-2.39167 -2.94584,-3.15v0v0c-1.26389,-0.77778 -2.67361,-1.16667 -4.22917,-1.16667v0v0c-1.55556,0 -2.96528,0.38889 -4.22917,1.16667v0v0c-1.26389,0.75833 -2.25556,1.80834 -2.975,3.15v0v0c-0.73889,1.32222 -1.10833,2.80973 -1.10833,4.46251v0v0c0,1.65278 0.36944,3.14028 1.10833,4.46251v0v0c0.71945,1.32222 1.71111,2.3625 2.975,3.12084v0v0c1.26389,0.75833 2.67361,1.1375 4.22917,1.1375zM1026.26966,541.33541v0c-0.7,0 -1.27361,-0.22361 -1.72084,-0.67083v0v0c-0.44722,-0.44722 -0.67083,-1.02083 -0.67083,-1.72084v0v-20.76669v0c0,-0.7 0.22361,-1.27361 0.67083,-1.72084v0v0c0.44722,-0.42778 1.02083,-0.64167 1.72084,-0.64167v0v0c0.7,0 1.27361,0.21389 1.72084,0.64167v0v0c0.42778,0.44722 0.64167,1.02083 0.64167,1.72084v0v20.76669v0c0,0.7 -0.21389,1.27361 -0.64167,1.72084v0v0c-0.44722,0.44722 -1.02083,0.67083 -1.72084,0.67083v0M1026.26966,511.6437v0c-0.85556,0 -1.58472,-0.30139 -2.1875,-0.90417v0v0c-0.60278,-0.60278 -0.90417,-1.32222 -0.90417,-2.15834v0v0c0,-0.83611 0.30139,-1.56528 0.90417,-2.1875v0v0c0.60278,-0.60278 1.33195,-0.90417 2.1875,-0.90417v0v0c0.83611,0 1.55556,0.30139 2.15834,0.90417v0v0c0.60278,0.62222 0.90417,1.35139 0.90417,2.1875v0v0c0,0.83611 -0.30139,1.55556 -0.90417,2.15834v0v0c-0.60278,0.60278 -1.32222,0.90417 -2.15834,0.90417z" id="CompoundPath 1" fill="#2490eb"/></g></g></g></svg>