<svg xmlns="http://www.w3.org/2000/svg" version="1.1" xmlns:xlink="http://www.w3.org/1999/xlink" xmlns:svgjs="http://svgjs.dev/svgjs" width="1500" height="890" viewBox="0 0 1500 890"><g transform="matrix(1,0,0,1,-0.9090909090909918,0.8697159465320397)"><svg viewBox="0 0 396 235" data-background-color="#ffffff" preserveAspectRatio="xMidYMid meet" height="890" width="1500" xmlns="http://www.w3.org/2000/svg" xmlns:xlink="http://www.w3.org/1999/xlink"><g id="tight-bounds" transform="matrix(1,0,0,1,0.2400000000000091,-0.22964409824160725)"><svg viewBox="0 0 395.52 235.45928819648321" height="235.45928819648321" width="395.52"><g><svg viewBox="0 0 395.52 235.45928819648321" height="235.45928819648321" width="395.52"><g><svg viewBox="0 0 395.52 235.45928819648321" height="235.45928819648321" width="395.52"><g><svg viewBox="0 0 395.52 235.45928819648321" height="235.45928819648321" width="395.52"><g transform="matrix(1,0,0,1,0,124.06909520148679)"><svg viewBox="0 0 395.52 111.39019299499643" height="111.39019299499643" width="395.52"><g id="textblocktransform"><svg viewBox="0 0 395.52 111.39019299499643" height="111.39019299499643" width="395.52" id="textblock"><g><svg viewBox="0 0 395.52 111.39019299499643" height="111.39019299499643" width="395.52"><g transform="matrix(1,0,0,1,0,0)"><svg width="395.52" viewBox="3.35 -38.8 139.89000000000001 39.4" height="111.39019299499643" data-palette-color="#111111"><path d="M23.75-4.8L19.85-4.8Q19.35-6 18.53-7.85 17.7-9.7 16.75-11.85 15.8-14 14.73-16.28 13.65-18.55 12.7-20.58 11.75-22.6 10.93-24.2 10.1-25.8 9.6-26.65L9.6-26.65Q9.05-20.75 8.7-13.88 8.35-7 8.1 0L8.1 0 3.35 0Q3.55-4.5 3.8-9.08 4.05-13.65 4.38-18.07 4.7-22.5 5.08-26.7 5.45-30.9 5.9-34.65L5.9-34.65 10.15-34.65Q11.5-32.45 13.05-29.45 14.6-26.45 16.15-23.18 17.7-19.9 19.15-16.63 20.6-13.35 21.8-10.65L21.8-10.65Q23-13.35 24.45-16.63 25.9-19.9 27.45-23.18 29-26.45 30.55-29.45 32.1-32.45 33.45-34.65L33.45-34.65 37.7-34.65Q39.4-17.9 40.25 0L40.25 0 35.5 0Q35.25-7 34.9-13.88 34.55-20.75 34-26.65L34-26.65Q33.5-25.8 32.68-24.2 31.85-22.6 30.9-20.58 29.95-18.55 28.88-16.28 27.8-14 26.85-11.85 25.9-9.7 25.08-7.85 24.25-6 23.75-4.8L23.75-4.8ZM46.1-12.95L46.1-12.95Q46.1-16.4 47.1-18.98 48.1-21.55 49.75-23.25 51.4-24.95 53.55-25.8 55.7-26.65 57.95-26.65L57.95-26.65Q63.2-26.65 66-23.38 68.8-20.1 68.8-13.4L68.8-13.4Q68.8-13.1 68.8-12.63 68.8-12.15 68.75-11.75L68.75-11.75 50.95-11.75Q51.25-7.7 53.3-5.6 55.35-3.5 59.7-3.5L59.7-3.5Q62.15-3.5 63.82-3.93 65.5-4.35 66.35-4.75L66.35-4.75 67-0.85Q66.15-0.4 64.02 0.1 61.9 0.6 59.2 0.6L59.2 0.6Q55.8 0.6 53.32-0.43 50.85-1.45 49.25-3.25 47.65-5.05 46.87-7.53 46.1-10 46.1-12.95ZM51.05-15.5L63.95-15.5Q64-18.65 62.37-20.68 60.75-22.7 57.9-22.7L57.9-22.7Q56.3-22.7 55.07-22.08 53.85-21.45 53-20.45 52.15-19.45 51.67-18.15 51.2-16.85 51.05-15.5L51.05-15.5ZM92.3-4.05L92.3-20.5Q91.45-21.2 89.84-21.85 88.25-22.5 86.34-22.5L86.34-22.5Q84.34-22.5 82.92-21.78 81.5-21.05 80.59-19.78 79.7-18.5 79.3-16.75 78.9-15 78.9-13L78.9-13Q78.9-8.45 81.15-5.98 83.4-3.5 87.15-3.5L87.15-3.5Q89.05-3.5 90.32-3.68 91.59-3.85 92.3-4.05L92.3-4.05ZM92.3-24.85L92.3-38 96.95-38.8 96.95-0.75Q95.34-0.3 92.84 0.15 90.34 0.6 87.09 0.6L87.09 0.6Q84.09 0.6 81.7-0.35 79.3-1.3 77.59-3.05 75.9-4.8 74.97-7.33 74.05-9.85 74.05-13L74.05-13Q74.05-16 74.82-18.5 75.59-21 77.09-22.8 78.59-24.6 80.77-25.6 82.95-26.6 85.75-26.6L85.75-26.6Q88-26.6 89.72-26 91.45-25.4 92.3-24.85L92.3-24.85ZM133.69 0L128.39 0Q127.54-2.25 126.79-4.42 126.04-6.6 125.24-8.85L125.24-8.85 109.54-8.85 106.39 0 101.34 0Q103.34-5.5 105.09-10.18 106.84-14.85 108.52-19.05 110.19-23.25 111.84-27.08 113.49-30.9 115.29-34.65L115.29-34.65 119.74-34.65Q121.54-30.9 123.19-27.08 124.84-23.25 126.52-19.05 128.19-14.85 129.94-10.18 131.69-5.5 133.69 0L133.69 0ZM110.94-12.85L123.84-12.85Q122.24-17.2 120.67-21.28 119.09-25.35 117.39-29.1L117.39-29.1Q115.64-25.35 114.07-21.28 112.49-17.2 110.94-12.85L110.94-12.85ZM138.39 0L138.39-34.65 143.24-34.65 143.24 0 138.39 0Z" opacity="1" transform="matrix(1,0,0,1,0,0)" fill="#111111" class="wordmark-text-0" data-fill-palette-color="primary" id="text-0"></path></svg></g></svg></g></svg></g></svg></g><g transform="matrix(1,0,0,1,75.54431999999998,0)"><svg viewBox="0 0 244.43136 97.77254400000001" height="97.77254400000001" width="244.43136"><g><svg xmlns="http://www.w3.org/2000/svg" xmlns:xlink="http://www.w3.org/1999/xlink" version="1.0" x="0" y="0" viewBox="20 38 60 24" enable-background="new 0 0 100 100" xml:space="preserve" height="97.77254400000001" width="244.43136" class="icon-icon-0" data-fill-palette-color="accent" id="icon-0"><g fill="#2490eb" data-fill-palette-color="accent"><path d="M68.172 38H31.828C25.295 38 20 43.296 20 49.829v0.342C20 56.704 25.295 62 31.828 62h36.344C74.704 62 80 56.704 80 50.171v-0.342C80 43.296 74.704 38 68.172 38zM78 50.143C78 55.587 73.586 60 68.143 60H51V40.122c0-0.041-0.005-0.081-0.005-0.122h17.147C73.586 40 78 44.413 78 49.857V50.143z" fill="#2490eb" data-fill-palette-color="accent"></path></g></svg></g></svg></g><g></g></svg></g></svg></g></svg></g><defs></defs></svg><rect width="395.52" height="235.45928819648321" fill="none" stroke="none" visibility="hidden"></rect></g></svg></g></svg>